<?xml version="1.0" encoding="UTF-8" standalone="no"?><!DOCTYPE svg PUBLIC "-//W3C//DTD SVG 1.1//EN" "http://www.w3.org/Graphics/SVG/1.1/DTD/svg11.dtd"><svg width="100%" height="100%" viewBox="0 0 336 406" version="1.1" xmlns="http://www.w3.org/2000/svg" xmlns:xlink="http://www.w3.org/1999/xlink" xml:space="preserve" xmlns:serif="http://www.serif.com/" style="fill-rule:evenodd;clip-rule:evenodd;stroke-linejoin:round;stroke-miterlimit:1.41421;"><path d="M184.65,114.822l0,-114.822c83.524,0 151.334,62.429 151.334,139.324c0,1.505 -0.025,3.003 -0.077,4.497l0.077,0l0,261.833l-0.489,-0.001c-81.788,-0.224 -148.39,-56.696 -150.778,-127.005l-0.067,0l0,-75.821l53.106,0l-53.106,-88.005Z" style="fill:#fff;"/><path d="M151.335,114.822l-53.107,88.005l53.107,0m-151.257,-59.006c-0.052,-1.494 -0.078,-2.992 -0.078,-4.497c0,-76.895 67.811,-139.324 151.335,-139.324l0,278.648l-0.067,0c-2.389,70.309 -68.99,126.781 -150.779,127.005l-0.489,0.001l0,-261.833l0.078,0Z" style="fill:#fff;"/></svg>